<?xml version="1.0" encoding="UTF-8" standalone="no"?>
<!DOCTYPE svg PUBLIC "-//W3C//DTD SVG 1.1//EN"
 "http://www.w3.org/Graphics/SVG/1.1/DTD/svg11.dtd">
<!-- Generated by graphviz version 2.43.0 (0)
 -->
<!-- Title: CallGraph Pages: 1 -->
<svg width="6758pt" height="407pt"
 viewBox="0.00 0.00 6757.95 407.00" xmlns="http://www.w3.org/2000/svg" xmlns:xlink="http://www.w3.org/1999/xlink">
<g id="graph0" class="graph" transform="scale(1 1) rotate(0) translate(4 403)">
<title>CallGraph</title>
<polygon fill="white" stroke="transparent" points="-4,4 -4,-403 6753.95,-403 6753.95,4 -4,4"/>
<!-- 0 -->
<g id="node1" class="node">
<title>0</title>
<ellipse fill="none" stroke="black" cx="542.95" cy="-192" rx="67.69" ry="18"/>
<text text-anchor="middle" x="542.95" y="-188.3" font-family="Times,serif" font-size="14.00">_ZN1BD2Ev</text>
</g>
<!-- 3 -->
<g id="node4" class="node">
<title>3</title>
<ellipse fill="none" stroke="black" cx="1203.95" cy="-105" rx="66.89" ry="18"/>
<text text-anchor="middle" x="1203.95" y="-101.3" font-family="Times,serif" font-size="14.00">_ZN1AD2Ev</text>
</g>
<!-- 0&#45;&gt;3 -->
<g id="edge22" class="edge">
<title>0&#45;&gt;3</title>
<path fill="none" stroke="black" d="M548.67,-173.94C553.48,-162.47 561.6,-148.19 573.95,-141 618.93,-114.82 990.05,-126.72 1041.95,-123 1072.1,-120.84 1105.31,-117.52 1133.77,-114.39"/>
<polygon fill="black" stroke="black" points="1134.48,-117.83 1144.03,-113.24 1133.7,-110.87 1134.48,-117.83"/>
<text text-anchor="middle" x="884.45" y="-144.8" font-family="Times,serif" font-size="14.00">call void @_ZN1AD2Ev(ptr noundef nonnull align 8 dereferenceable(8) %this1) | ID: 90</text>
</g>
<!-- 11 -->
<g id="node12" class="node">
<title>11</title>
<ellipse fill="none" stroke="black" cx="3522.95" cy="-18" rx="88.28" ry="18"/>
<text text-anchor="middle" x="3522.95" y="-14.3" font-family="Times,serif" font-size="14.00">llvm.dbg.declare</text>
</g>
<!-- 0&#45;&gt;11 -->
<g id="edge27" class="edge">
<title>0&#45;&gt;11</title>
<path fill="none" stroke="black" d="M544.87,-173.81C546.6,-163.68 549.86,-150.94 555.95,-141 574.89,-110.14 583.44,-100.69 616.95,-87 882.67,21.56 975.07,-63.56 1261.95,-54 2098.42,-26.14 3109.7,-20.41 3424.57,-19.27"/>
<polygon fill="black" stroke="black" points="3424.59,-22.77 3434.58,-19.24 3424.57,-15.77 3424.59,-22.77"/>
<text text-anchor="middle" x="872.45" y="-101.3" font-family="Times,serif" font-size="14.00">call void @llvm.dbg.declare(metadata ptr %this.addr, metadata | ID: 88</text>
</g>
<!-- 1 -->
<g id="node2" class="node">
<title>1</title>
<ellipse fill="none" stroke="black" cx="3697.95" cy="-294" rx="33.6" ry="18"/>
<text text-anchor="middle" x="3697.95" y="-290.3" font-family="Times,serif" font-size="14.00">main</text>
</g>
<!-- 1&#45;&gt;0 -->
<g id="edge2" class="edge">
<title>1&#45;&gt;0</title>
<path fill="none" stroke="black" d="M3664.1,-293.01C3295.53,-293.04 40.99,-292.36 6.95,-258 -2.43,-248.53 -2.16,-237.73 6.95,-228 37.55,-195.34 323.6,-191.98 464.82,-192.34"/>
<polygon fill="black" stroke="black" points="465.14,-195.84 475.15,-192.38 465.16,-188.84 465.14,-195.84"/>
<text text-anchor="middle" x="304.45" y="-239.3" font-family="Times,serif" font-size="14.00">call void @_ZN1BD2Ev(ptr noundef nonnull align 8 dereferenceable(8) %b) | ID: 47</text>
</g>
<!-- 1&#45;&gt;0 -->
<g id="edge15" class="edge">
<title>1&#45;&gt;0</title>
<path fill="none" stroke="black" d="M3664.15,-292.96C3334.81,-292.48 707.97,-287.76 633.95,-258 615.87,-250.73 617.54,-239.71 601.95,-228 595.33,-223.02 587.94,-218.16 580.7,-213.73"/>
<polygon fill="black" stroke="black" points="582.05,-210.46 571.67,-208.35 578.48,-216.48 582.05,-210.46"/>
<text text-anchor="middle" x="931.45" y="-239.3" font-family="Times,serif" font-size="14.00">call void @_ZN1BD2Ev(ptr noundef nonnull align 8 dereferenceable(8) %b) | ID: 32</text>
</g>
<!-- 2 -->
<g id="node3" class="node">
<title>2</title>
<ellipse fill="none" stroke="black" cx="2386.95" cy="-192" rx="66.89" ry="18"/>
<text text-anchor="middle" x="2386.95" y="-188.3" font-family="Times,serif" font-size="14.00">_ZN1BC2Ev</text>
</g>
<!-- 1&#45;&gt;2 -->
<g id="edge17" class="edge">
<title>1&#45;&gt;2</title>
<path fill="none" stroke="black" d="M3664.08,-292.69C3473.46,-290.83 2541.07,-280.63 2484.95,-258 2466.57,-250.59 2468.13,-239.45 2451.95,-228 2444.35,-222.62 2435.82,-217.47 2427.51,-212.86"/>
<polygon fill="black" stroke="black" points="2429.09,-209.73 2418.62,-208.07 2425.77,-215.9 2429.09,-209.73"/>
<text text-anchor="middle" x="2781.95" y="-239.3" font-family="Times,serif" font-size="14.00">call void @_ZN1BC2Ev(ptr noundef nonnull align 8 dereferenceable(8) %b) | ID: 19</text>
</g>
<!-- 4 -->
<g id="node5" class="node">
<title>4</title>
<ellipse fill="none" stroke="black" cx="1549.95" cy="-192" rx="67.69" ry="18"/>
<text text-anchor="middle" x="1549.95" y="-188.3" font-family="Times,serif" font-size="14.00">_ZN1CD2Ev</text>
</g>
<!-- 1&#45;&gt;4 -->
<g id="edge21" class="edge">
<title>1&#45;&gt;4</title>
<path fill="none" stroke="black" d="M3664.01,-292.8C3416.32,-291.29 1895.94,-281.07 1854.95,-258 1841.2,-250.26 1849.29,-236.44 1835.95,-228 1802.24,-206.67 1699.52,-198.34 1626.86,-195.08"/>
<polygon fill="black" stroke="black" points="1626.96,-191.58 1616.82,-194.65 1626.66,-198.57 1626.96,-191.58"/>
<text text-anchor="middle" x="2151.45" y="-239.3" font-family="Times,serif" font-size="14.00">call void @_ZN1CD2Ev(ptr noundef nonnull align 8 dereferenceable(8) %c) | ID: 45</text>
</g>
<!-- 1&#45;&gt;4 -->
<g id="edge29" class="edge">
<title>1&#45;&gt;4</title>
<path fill="none" stroke="black" d="M3663.99,-292.84C3369.66,-291.44 1261.26,-280.63 1238.95,-258 1229.59,-248.51 1230.07,-237.94 1238.95,-228 1254.34,-210.78 1386.47,-201 1473.48,-196.37"/>
<polygon fill="black" stroke="black" points="1473.79,-199.85 1483.59,-195.84 1473.43,-192.86 1473.79,-199.85"/>
<text text-anchor="middle" x="1535.45" y="-239.3" font-family="Times,serif" font-size="14.00">call void @_ZN1CD2Ev(ptr noundef nonnull align 8 dereferenceable(8) %c) | ID: 31</text>
</g>
<!-- 5 -->
<g id="node6" class="node">
<title>5</title>
<ellipse fill="none" stroke="black" cx="3090.95" cy="-192" rx="66.89" ry="18"/>
<text text-anchor="middle" x="3090.95" y="-188.3" font-family="Times,serif" font-size="14.00">_ZN1CC2Ev</text>
</g>
<!-- 1&#45;&gt;5 -->
<g id="edge23" class="edge">
<title>1&#45;&gt;5</title>
<path fill="none" stroke="black" d="M3664.04,-292.3C3539.25,-289.58 3111.87,-278.78 3091.95,-258 3082.53,-248.16 3081.77,-233.15 3083.6,-220.03"/>
<polygon fill="black" stroke="black" points="3087.07,-220.53 3085.51,-210.05 3080.19,-219.21 3087.07,-220.53"/>
<text text-anchor="middle" x="3387.95" y="-239.3" font-family="Times,serif" font-size="14.00">call void @_ZN1CC2Ev(ptr noundef nonnull align 8 dereferenceable(8) %c) | ID: 22</text>
</g>
<!-- 7 -->
<g id="node8" class="node">
<title>7</title>
<ellipse fill="none" stroke="black" cx="4221.95" cy="-192" rx="74.19" ry="18"/>
<text text-anchor="middle" x="4221.95" y="-188.3" font-family="Times,serif" font-size="14.00">_ZN1B3fooEv</text>
</g>
<!-- 1&#45;&gt;7 -->
<g id="edge18" class="edge">
<title>1&#45;&gt;7</title>
<path fill="none" stroke="black" d="M3704.59,-276.07C3711.72,-258.79 3723.22,-233.72 3731.95,-228 3765.02,-206.33 4007.24,-197.69 4138.29,-194.57"/>
<polygon fill="black" stroke="black" points="4138.39,-198.07 4148.3,-194.34 4138.22,-191.07 4138.39,-198.07"/>
<text text-anchor="middle" x="4016.95" y="-246.8" font-family="Times,serif" font-size="14.00">invoke void @_ZN1B3fooEv(ptr noundef nonnull align 8 dereferenceable(8) %b)</text>
<text text-anchor="middle" x="4016.95" y="-231.8" font-family="Times,serif" font-size="14.00"> &#160;&#160;&#160;&#160;&#160;&#160;&#160;&#160;&#160;to label %invoke.cont unwind label %lpad | ID: 20</text>
</g>
<!-- 1&#45;&gt;7 -->
<g id="edge26" class="edge">
<title>1&#45;&gt;7</title>
<path fill="none" stroke="black" d="M3727.29,-285C3741.05,-281.6 3757.73,-277.97 3772.95,-276 3802.12,-272.23 4281.52,-279.14 4301.95,-258 4311.22,-248.41 4309.25,-239.16 4301.95,-228 4297.01,-220.44 4290.03,-214.5 4282.24,-209.85"/>
<polygon fill="black" stroke="black" points="4283.64,-206.63 4273.16,-205.11 4280.41,-212.84 4283.64,-206.63"/>
<text text-anchor="middle" x="4548.45" y="-246.8" font-family="Times,serif" font-size="14.00">invoke void %1(ptr noundef nonnull align 8 dereferenceable(8) %0)</text>
<text text-anchor="middle" x="4548.45" y="-231.8" font-family="Times,serif" font-size="14.00"> &#160;&#160;&#160;&#160;&#160;&#160;&#160;&#160;&#160;to label %invoke.cont3 unwind label %lpad1 | ID: 30</text>
</g>
<!-- 1&#45;&gt;11 -->
<g id="edge8" class="edge">
<title>1&#45;&gt;11</title>
<path fill="none" stroke="black" d="M3694.82,-275.67C3690.15,-243.61 3685.6,-175.22 3723.95,-141 3750.86,-117 4023.18,-149.19 4047.95,-123 4058.95,-111.38 4058.52,-99.02 4047.95,-87 4020,-55.19 3760.12,-33.93 3616.79,-24.53"/>
<polygon fill="black" stroke="black" points="3616.89,-21.02 3606.68,-23.87 3616.43,-28.01 3616.89,-21.02"/>
<text text-anchor="middle" x="3951.95" y="-144.8" font-family="Times,serif" font-size="14.00">call void @llvm.dbg.declare(metadata ptr %c, metadata | ID: 21</text>
</g>
<!-- 1&#45;&gt;11 -->
<g id="edge9" class="edge">
<title>1&#45;&gt;11</title>
<path fill="none" stroke="black" d="M3727.27,-284.82C3741.02,-281.38 3757.7,-277.77 3772.95,-276 3802.13,-272.61 5867.27,-278.86 5887.95,-258 5897.34,-248.53 5895.37,-239.08 5887.95,-228 5796.5,-91.37 5706.55,-122.22 5545.95,-87 5357.27,-45.62 4000.42,-25.16 3621.19,-20.21"/>
<polygon fill="black" stroke="black" points="3621.11,-16.71 3611.06,-20.08 3621.01,-23.71 3621.11,-16.71"/>
<text text-anchor="middle" x="6049.45" y="-144.8" font-family="Times,serif" font-size="14.00">call void @llvm.dbg.declare(metadata ptr %b, metadata | ID: 18</text>
</g>
<!-- 1&#45;&gt;11 -->
<g id="edge13" class="edge">
<title>1&#45;&gt;11</title>
<path fill="none" stroke="black" d="M3727.27,-284.82C3741.02,-281.38 3757.7,-277.77 3772.95,-276 4008.27,-248.66 5670.25,-290.2 5904.95,-258 6078.76,-234.16 6400.49,-270.34 6281.95,-141 6190.29,-40.97 4103.15,-22.45 3621.49,-19.5"/>
<polygon fill="black" stroke="black" points="3621.46,-16 3611.44,-19.44 3621.42,-23 3621.46,-16"/>
<text text-anchor="middle" x="6521.45" y="-144.8" font-family="Times,serif" font-size="14.00">call void @llvm.dbg.declare(metadata ptr %a, metadata | ID: 24</text>
</g>
<!-- 12 -->
<g id="node13" class="node">
<title>12</title>
<ellipse fill="none" stroke="black" cx="4951.95" cy="-192" rx="74.19" ry="18"/>
<text text-anchor="middle" x="4951.95" y="-188.3" font-family="Times,serif" font-size="14.00">_ZN1C3fooEv</text>
</g>
<!-- 1&#45;&gt;12 -->
<g id="edge25" class="edge">
<title>1&#45;&gt;12</title>
<path fill="none" stroke="black" d="M3727.27,-284.89C3741.03,-281.46 3757.71,-277.84 3772.95,-276 3829.22,-269.2 4739.84,-277.76 4792.95,-258 4812.47,-250.74 4810.54,-237.73 4828.95,-228 4846.51,-218.73 4866.8,-211.66 4885.79,-206.39"/>
<polygon fill="black" stroke="black" points="4886.8,-209.75 4895.57,-203.8 4885.01,-202.98 4886.8,-209.75"/>
<text text-anchor="middle" x="5069.45" y="-246.8" font-family="Times,serif" font-size="14.00">invoke void %1(ptr noundef nonnull align 8 dereferenceable(8) %0)</text>
<text text-anchor="middle" x="5069.45" y="-231.8" font-family="Times,serif" font-size="14.00"> &#160;&#160;&#160;&#160;&#160;&#160;&#160;&#160;&#160;to label %invoke.cont3 unwind label %lpad1 | ID: 30</text>
</g>
<!-- 1&#45;&gt;12 -->
<g id="edge28" class="edge">
<title>1&#45;&gt;12</title>
<path fill="none" stroke="black" d="M3727.27,-284.84C3741.02,-281.41 3757.71,-277.8 3772.95,-276 3794.16,-273.5 5294.95,-273.18 5309.95,-258 5319.33,-248.52 5318.91,-237.88 5309.95,-228 5291.85,-208.04 5135.47,-199.09 5035.47,-195.37"/>
<polygon fill="black" stroke="black" points="5035.49,-191.87 5025.37,-195.01 5035.24,-198.86 5035.49,-191.87"/>
<text text-anchor="middle" x="5599.95" y="-246.8" font-family="Times,serif" font-size="14.00">invoke void @_ZN1C3fooEv(ptr noundef nonnull align 8 dereferenceable(8) %c)</text>
<text text-anchor="middle" x="5599.95" y="-231.8" font-family="Times,serif" font-size="14.00"> &#160;&#160;&#160;&#160;&#160;&#160;&#160;&#160;&#160;to label %invoke.cont2 unwind label %lpad1 | ID: 23</text>
</g>
<!-- 9 -->
<g id="node10" class="node">
<title>9</title>
<ellipse fill="none" stroke="black" cx="2996.95" cy="-105" rx="66.09" ry="18"/>
<text text-anchor="middle" x="2996.95" y="-101.3" font-family="Times,serif" font-size="14.00">_ZN1AC2Ev</text>
</g>
<!-- 2&#45;&gt;9 -->
<g id="edge11" class="edge">
<title>2&#45;&gt;9</title>
<path fill="none" stroke="black" d="M2384.29,-173.6C2383.68,-162.59 2385.1,-148.98 2393.95,-141 2414.93,-122.09 2873.87,-125.99 2901.95,-123 2912.92,-121.83 2924.54,-120.14 2935.73,-118.27"/>
<polygon fill="black" stroke="black" points="2936.61,-121.67 2945.87,-116.51 2935.42,-114.77 2936.61,-121.67"/>
<text text-anchor="middle" x="2703.95" y="-144.8" font-family="Times,serif" font-size="14.00">call void @_ZN1AC2Ev(ptr noundef nonnull align 8 dereferenceable(8) %this1) | ID: 58</text>
</g>
<!-- 2&#45;&gt;11 -->
<g id="edge20" class="edge">
<title>2&#45;&gt;11</title>
<path fill="none" stroke="black" d="M2384.03,-173.96C2383.18,-168.27 2382.37,-161.88 2381.95,-156 2379.6,-122.82 2382.94,-104.94 2410.95,-87 2495.14,-33.1 3168.57,-21.91 3424.62,-19.6"/>
<polygon fill="black" stroke="black" points="3424.69,-23.1 3434.66,-19.51 3424.63,-16.1 3424.69,-23.1"/>
<text text-anchor="middle" x="2666.45" y="-101.3" font-family="Times,serif" font-size="14.00">call void @llvm.dbg.declare(metadata ptr %this.addr, metadata | ID: 56</text>
</g>
<!-- 3&#45;&gt;11 -->
<g id="edge5" class="edge">
<title>3&#45;&gt;11</title>
<path fill="none" stroke="black" d="M1228.35,-88.21C1248.32,-76.25 1277.77,-60.77 1305.95,-54 1410.06,-28.99 3008.11,-21.01 3424.42,-19.36"/>
<polygon fill="black" stroke="black" points="3424.63,-22.86 3434.62,-19.32 3424.61,-15.86 3424.63,-22.86"/>
<text text-anchor="middle" x="1565.95" y="-57.8" font-family="Times,serif" font-size="14.00">call void @llvm.dbg.declare(metadata ptr %this.addr, metadata | ID: 107</text>
</g>
<!-- 4&#45;&gt;3 -->
<g id="edge3" class="edge">
<title>4&#45;&gt;3</title>
<path fill="none" stroke="black" d="M1483.22,-188.91C1388.24,-185.23 1223.42,-176.03 1204.95,-156 1199.41,-149.99 1197.81,-141.63 1198,-133.46"/>
<polygon fill="black" stroke="black" points="1201.5,-133.72 1199.05,-123.42 1194.53,-133 1201.5,-133.72"/>
<text text-anchor="middle" x="1515.45" y="-144.8" font-family="Times,serif" font-size="14.00">call void @_ZN1AD2Ev(ptr noundef nonnull align 8 dereferenceable(8) %this1) | ID: 84</text>
</g>
<!-- 4&#45;&gt;11 -->
<g id="edge16" class="edge">
<title>4&#45;&gt;11</title>
<path fill="none" stroke="black" d="M1616.75,-189.04C1687.13,-185.85 1792.35,-177.53 1825.95,-156 1856.38,-136.51 1837.86,-105.41 1868.95,-87 1936.09,-47.26 3079.71,-26.01 3425.02,-20.48"/>
<polygon fill="black" stroke="black" points="3425.3,-23.97 3435.24,-20.31 3425.19,-16.97 3425.3,-23.97"/>
<text text-anchor="middle" x="2124.45" y="-101.3" font-family="Times,serif" font-size="14.00">call void @llvm.dbg.declare(metadata ptr %this.addr, metadata | ID: 82</text>
</g>
<!-- 5&#45;&gt;9 -->
<g id="edge12" class="edge">
<title>5&#45;&gt;9</title>
<path fill="none" stroke="black" d="M3059.24,-175.98C3049.53,-170.51 3039.24,-163.73 3030.95,-156 3023.51,-149.06 3016.83,-140.2 3011.4,-131.88"/>
<polygon fill="black" stroke="black" points="3014.26,-129.84 3006.03,-123.17 3008.3,-133.52 3014.26,-129.84"/>
<text text-anchor="middle" x="3340.95" y="-144.8" font-family="Times,serif" font-size="14.00">call void @_ZN1AC2Ev(ptr noundef nonnull align 8 dereferenceable(8) %this1) | ID: 71</text>
</g>
<!-- 5&#45;&gt;11 -->
<g id="edge10" class="edge">
<title>5&#45;&gt;11</title>
<path fill="none" stroke="black" d="M3157.23,-189.26C3301.86,-185.13 3634.28,-173.75 3650.95,-156 3655.52,-151.14 3655.28,-146.07 3650.95,-141 3617.63,-102 3572.81,-159.68 3536.95,-123 3517.41,-103 3516.27,-69.6 3518.49,-46.05"/>
<polygon fill="black" stroke="black" points="3521.98,-46.36 3519.69,-36.01 3515.03,-45.52 3521.98,-46.36"/>
<text text-anchor="middle" x="3792.45" y="-101.3" font-family="Times,serif" font-size="14.00">call void @llvm.dbg.declare(metadata ptr %this.addr, metadata | ID: 69</text>
</g>
<!-- 6 -->
<g id="node7" class="node">
<title>6</title>
<ellipse fill="none" stroke="black" cx="3946.95" cy="-294" rx="165.17" ry="18"/>
<text text-anchor="middle" x="3946.95" y="-290.3" font-family="Times,serif" font-size="14.00">__psrCRuntimeGlobalDtorsModel</text>
</g>
<!-- 8 -->
<g id="node9" class="node">
<title>8</title>
<ellipse fill="none" stroke="black" cx="4728.95" cy="-105" rx="31.4" ry="18"/>
<text text-anchor="middle" x="4728.95" y="-101.3" font-family="Times,serif" font-size="14.00">puts</text>
</g>
<!-- 7&#45;&gt;8 -->
<g id="edge14" class="edge">
<title>7&#45;&gt;8</title>
<path fill="none" stroke="black" d="M4248.32,-175C4269.13,-163.26 4299.34,-148.17 4327.95,-141 4481.62,-102.48 4528.87,-155.38 4683.95,-123 4687.69,-122.22 4691.52,-121.18 4695.3,-119.99"/>
<polygon fill="black" stroke="black" points="4696.78,-123.18 4705.08,-116.59 4694.48,-116.57 4696.78,-123.18"/>
<text text-anchor="middle" x="4506.45" y="-144.8" font-family="Times,serif" font-size="14.00">%call = call i32 @puts(ptr noundef @.str) | ID: 65</text>
</g>
<!-- 7&#45;&gt;11 -->
<g id="edge24" class="edge">
<title>7&#45;&gt;11</title>
<path fill="none" stroke="black" d="M4210.28,-174.09C4188.17,-143.65 4136.88,-80.37 4075.95,-54 4035.38,-36.44 3767.9,-26.05 3620.33,-21.59"/>
<polygon fill="black" stroke="black" points="3620.02,-18.08 3609.92,-21.28 3619.81,-25.08 3620.02,-18.08"/>
<text text-anchor="middle" x="4421.45" y="-101.3" font-family="Times,serif" font-size="14.00">call void @llvm.dbg.declare(metadata ptr %this.addr, metadata | ID: 63</text>
</g>
<!-- 9&#45;&gt;11 -->
<g id="edge7" class="edge">
<title>9&#45;&gt;11</title>
<path fill="none" stroke="black" d="M2992.03,-86.97C2990.03,-76.12 2989.8,-62.54 2997.95,-54 3026.67,-23.91 3280.26,-18.92 3424.21,-18.55"/>
<polygon fill="black" stroke="black" points="3424.39,-22.05 3434.38,-18.53 3424.38,-15.05 3424.39,-22.05"/>
<text text-anchor="middle" x="3253.45" y="-57.8" font-family="Times,serif" font-size="14.00">call void @llvm.dbg.declare(metadata ptr %this.addr, metadata | ID: 94</text>
</g>
<!-- 10 -->
<g id="node11" class="node">
<title>10</title>
<ellipse fill="none" stroke="black" cx="3821.95" cy="-381" rx="165.17" ry="18"/>
<text text-anchor="middle" x="3821.95" y="-377.3" font-family="Times,serif" font-size="14.00">__psrCRuntimeGlobalCtorsModel</text>
</g>
<!-- 10&#45;&gt;1 -->
<g id="edge1" class="edge">
<title>10&#45;&gt;1</title>
<path fill="none" stroke="black" d="M3725.84,-366.31C3715.44,-361.15 3706.07,-354.23 3698.95,-345 3694.01,-338.59 3692.54,-330.23 3692.66,-322.18"/>
<polygon fill="black" stroke="black" points="3696.17,-322.24 3693.58,-311.97 3689.2,-321.61 3696.17,-322.24"/>
<text text-anchor="middle" x="3811.95" y="-333.8" font-family="Times,serif" font-size="14.00">%2 = call i32 @main() | ID: 124</text>
</g>
<!-- 10&#45;&gt;6 -->
<g id="edge4" class="edge">
<title>10&#45;&gt;6</title>
<path fill="none" stroke="black" d="M3892.76,-364.7C3904.47,-359.83 3915.77,-353.42 3924.95,-345 3931.69,-338.83 3936.47,-330.22 3939.81,-321.89"/>
<polygon fill="black" stroke="black" points="3943.14,-322.99 3943.11,-312.39 3936.52,-320.69 3943.14,-322.99"/>
<text text-anchor="middle" x="4131.45" y="-333.8" font-family="Times,serif" font-size="14.00">call void @__psrCRuntimeGlobalDtorsModel() | ID: 125</text>
</g>
<!-- 12&#45;&gt;8 -->
<g id="edge19" class="edge">
<title>12&#45;&gt;8</title>
<path fill="none" stroke="black" d="M4877.84,-191.41C4809.97,-190.02 4716.58,-183.03 4692.95,-156 4684.63,-146.47 4691.68,-135.07 4701.68,-125.57"/>
<polygon fill="black" stroke="black" points="4703.99,-128.2 4709.3,-119.04 4699.43,-122.89 4703.99,-128.2"/>
<text text-anchor="middle" x="4877.45" y="-144.8" font-family="Times,serif" font-size="14.00">%call = call i32 @puts(ptr noundef @.str.1) | ID: 78</text>
</g>
<!-- 12&#45;&gt;11 -->
<g id="edge6" class="edge">
<title>12&#45;&gt;11</title>
<path fill="none" stroke="black" d="M5015.34,-182.48C5048.96,-175.29 5079.94,-162.6 5061.95,-141 4969.79,-30.3 3947.12,-19.49 3621.74,-18.87"/>
<polygon fill="black" stroke="black" points="3621.4,-15.37 3611.39,-18.85 3621.39,-22.37 3621.4,-15.37"/>
<text text-anchor="middle" x="5286.45" y="-101.3" font-family="Times,serif" font-size="14.00">call void @llvm.dbg.declare(metadata ptr %this.addr, metadata | ID: 76</text>
</g>
</g>
</svg>
